<svg width="1200" height="800" viewBox="0 0 1200 800" fill="none" xmlns="http://www.w3.org/2000/svg">
  <rect width="1200" height="800" rx="36" fill="#121722"/>
  <rect x="44" y="42" width="1112" height="716" rx="30" fill="url(#paint0_linear)"/>
  <circle cx="930" cy="190" r="160" fill="url(#paint1_radial)" fill-opacity="0.9"/>
  <circle cx="304" cy="582" r="228" fill="url(#paint2_radial)" fill-opacity="0.68"/>
  <path d="M150 210C282 158.667 393.667 151.333 485 188C576.333 224.667 675.667 229.667 783 203C890.333 176.333 1001.33 183.667 1116 225" stroke="#F8F4EA" stroke-opacity="0.32" stroke-width="2.5"/>
  <path d="M148 280C280.667 228 392.333 220.667 483 258C573.667 295.333 673 300 781 272C889 244 1000.67 250.667 1116 292" stroke="#F8F4EA" stroke-opacity="0.2" stroke-width="2.5"/>
  <path d="M148 348C280.667 296 392.333 288.667 483 326C573.667 363.333 673 368 781 340C889 312 1000.67 318.667 1116 360" stroke="#F8F4EA" stroke-opacity="0.14" stroke-width="2.5"/>
  <rect x="116" y="118" width="194" height="124" rx="24" fill="#FFFFFF" fill-opacity="0.08" stroke="#FFFFFF" stroke-opacity="0.16"/>
  <rect x="840" y="486" width="214" height="140" rx="28" fill="#FFFFFF" fill-opacity="0.08" stroke="#FFFFFF" stroke-opacity="0.16"/>
  <rect x="148" y="512" width="320" height="56" rx="18" fill="#FFF6E7" fill-opacity="0.9"/>
  <rect x="148" y="588" width="420" height="22" rx="11" fill="#FFFFFF" fill-opacity="0.86"/>
  <rect x="148" y="624" width="358" height="22" rx="11" fill="#FFFFFF" fill-opacity="0.58"/>
  <text x="152" y="547" fill="#171A25" font-family="Arial, sans-serif" font-size="34" font-weight="700">Build in Public</text>
  <text x="150" y="682" fill="#F8F4EA" font-family="Arial, sans-serif" font-size="28" font-weight="600">Stories from code, business, and real life.</text>
  <defs>
    <linearGradient id="paint0_linear" x1="122" y1="112" x2="1078" y2="718" gradientUnits="userSpaceOnUse">
      <stop stop-color="#182033"/>
      <stop offset="1" stop-color="#222B3C"/>
    </linearGradient>
    <radialGradient id="paint1_radial" cx="0" cy="0" r="1" gradientUnits="userSpaceOnUse" gradientTransform="translate(930 190) rotate(90) scale(160)">
      <stop stop-color="#2449DA"/>
      <stop offset="1" stop-color="#2449DA" stop-opacity="0"/>
    </radialGradient>
    <radialGradient id="paint2_radial" cx="0" cy="0" r="1" gradientUnits="userSpaceOnUse" gradientTransform="translate(304 582) rotate(90) scale(228)">
      <stop stop-color="#F59E0B"/>
      <stop offset="1" stop-color="#F59E0B" stop-opacity="0"/>
    </radialGradient>
  </defs>
</svg>
