<svg width="1200" height="800" viewBox="0 0 1200 800" fill="none" xmlns="http://www.w3.org/2000/svg">
  <rect width="1200" height="800" rx="32" fill="#F8F5EE"/>
  <rect x="56" y="54" width="1088" height="692" rx="28" fill="#FEFCF8" stroke="#E9E1D4"/>
  <circle cx="924" cy="236" r="170" fill="#E8EEFF"/>
  <circle cx="302" cy="582" r="206" fill="#FFF0DB"/>
  <path d="M142 255C235.333 194.333 348.667 180 482 212C615.333 244 739 239.333 853 198C967 156.667 1053.67 140 1113 148" stroke="#1738C1" stroke-opacity="0.16" stroke-width="3"/>
  <path d="M136 300C252.667 270 358 274.333 452 313C546 351.667 653.667 356.667 775 328C896.333 299.333 1008 301 1110 333" stroke="#F59E0B" stroke-opacity="0.24" stroke-width="3"/>
  <rect x="150" y="152" width="242" height="58" rx="18" fill="#101728"/>
  <text x="186" y="191" fill="#F8F5EE" font-family="Arial, sans-serif" font-size="28" font-weight="700">Life Notes</text>
  <text x="150" y="484" fill="#171A25" font-family="Arial, sans-serif" font-size="66" font-weight="700">From anxiety</text>
  <text x="150" y="562" fill="#171A25" font-family="Arial, sans-serif" font-size="66" font-weight="700">to execution.</text>
  <rect x="150" y="608" width="448" height="22" rx="11" fill="#A8B1C2" fill-opacity="0.46"/>
  <rect x="150" y="646" width="384" height="22" rx="11" fill="#A8B1C2" fill-opacity="0.28"/>
</svg>
